<?xml version="1.0" encoding="utf-8"?>
<!-- Generator: Adobe Illustrator 15.0.0, SVG Export Plug-In . SVG Version: 6.00 Build 0)  -->
<!DOCTYPE svg PUBLIC "-//W3C//DTD SVG 1.0//EN" "http://www.w3.org/TR/2001/REC-SVG-20010904/DTD/svg10.dtd">
<svg version="1.0" id="Layer_1" xmlns="http://www.w3.org/2000/svg" xmlns:xlink="http://www.w3.org/1999/xlink" x="0px" y="0px"
	 width="225.815px" height="30.04px" viewBox="0 0 225.815 30.04" enable-background="new 0 0 225.815 30.04" xml:space="preserve">
<g>

		<rect x="1.023" y="10.703" transform="matrix(-0.7072 0.7071 -0.7071 -0.7072 15.2789 20.0186)" fill="#FFFFFF" width="4.941" height="4.941"/>

		<rect x="216.159" y="10.702" transform="matrix(-0.7071 0.7072 -0.7072 -0.7071 382.5277 -132.1171)" fill="#FFFFFF" width="4.94" height="4.942"/>
	<g>
		<polygon fill="#636466" points="28.602,13.297 29.875,13.297 29.875,8.209 31.877,8.209 31.877,6.936 28.602,6.936 		"/>
		<path fill="#636466" d="M37.705,14.231V6.478c0-1.097-0.653-2.032-1.567-2.487c0.182,0.368,0.293,0.776,0.293,1.213v7.753
			c0,0.865-0.375,1.619-1.016,2.146c0.564,0.602,1.016,1.28,1.016,2.259v8.619c0,1.505-1.279,2.785-2.785,2.785h-8.287v1.273h9.561
			c1.505,0,2.785-1.279,2.785-2.785v-8.619c0-0.979-0.451-1.656-1.016-2.259C37.328,15.85,37.705,15.097,37.705,14.231z"/>
		<polygon fill="#636466" points="28.602,24.212 29.875,24.212 29.875,19.087 31.877,19.087 31.877,17.813 28.602,17.813 		"/>
	</g>
	<g>
		<polygon fill="#636466" points="48.778,24.212 50.051,24.212 50.051,8.209 52.053,8.209 52.053,6.936 48.778,6.936 		"/>
		<path fill="#636466" d="M56.313,3.991c0.183,0.368,0.294,0.776,0.294,1.213v20.777c0,1.505-1.28,2.785-2.785,2.785h-6.774
			c-0.438,0-0.847-0.112-1.215-0.295c0.455,0.916,1.39,1.568,2.487,1.568h6.775c1.505,0,2.785-1.279,2.785-2.785V6.478
			C57.88,5.381,57.228,4.446,56.313,3.991z"/>
	</g>
	<g>
		<polygon fill="#636466" points="68.953,13.297 70.227,13.297 70.227,8.209 72.228,8.209 72.228,6.936 68.953,6.936 		"/>
		<path fill="#636466" d="M76.438,18.823c0.978-0.451,1.58-1.43,1.58-2.484V6.478c0-1.11-0.647-2.056-1.568-2.504
			c0.183,0.372,0.295,0.786,0.295,1.231v9.861c0,1.054-0.603,2.033-1.581,2.484l1.882,11.217h-3.458l0.214,1.273h4.517
			L76.438,18.823z"/>
		<polygon fill="#636466" points="70.685,17.813 68.953,17.813 68.953,28.767 65.71,28.767 65.71,30.04 70.227,30.04 70.227,19.087
			70.899,19.087 		"/>
	</g>
	<g>
		<polygon fill="#636466" points="88.527,24.212 89.801,24.212 89.801,8.209 91.803,8.209 91.803,6.936 88.527,6.936 		"/>
		<path fill="#636466" d="M96.063,3.991c0.182,0.368,0.293,0.776,0.293,1.213v20.777c0,1.505-1.279,2.785-2.785,2.785h-6.776
			c-0.437,0-0.846-0.112-1.213-0.294c0.454,0.915,1.389,1.567,2.486,1.567h6.775c1.505,0,2.785-1.279,2.785-2.785V6.478
			C97.63,5.381,96.977,4.446,96.063,3.991z"/>
	</g>
	<g>
		<polygon fill="#636466" points="108.703,24.212 109.976,24.212 109.976,8.209 111.978,8.209 111.978,6.936 108.703,6.936 		"/>
		<path fill="#636466" d="M116.239,3.991c0.181,0.368,0.293,0.776,0.293,1.213v20.777c0,1.505-1.28,2.785-2.785,2.785h-8.288v1.273
			h9.561c1.505,0,2.784-1.279,2.784-2.785V6.478C117.805,5.381,117.153,4.446,116.239,3.991z"/>
	</g>
	<polygon fill="#636466" points="129.105,3.693 129.105,28.767 125.861,28.767 125.861,30.04 130.378,30.04 130.378,3.693 	"/>
	<g>
		<polygon fill="#636466" points="149.205,3.693 149.205,28.767 145.595,28.767 145.961,30.04 150.478,30.04 150.478,3.693 		"/>
		<polygon fill="#636466" points="141.375,17.249 141.375,28.767 138.133,28.767 138.133,30.04 142.648,30.04 142.648,21.676 		"/>
	</g>
	<g>
		<path fill="#636466" d="M161.094,19.087h3.732v-1.273h-5.006c-0.441,0-0.853-0.109-1.222-0.291
			C159.051,18.447,159.99,19.087,161.094,19.087z"/>
		<polygon fill="#636466" points="162.823,20.78 161.552,21.077 161.552,24.212 162.823,24.212 		"/>
		<path fill="#636466" d="M169.086,3.991c0.183,0.368,0.294,0.776,0.294,1.213v5.345l-3.281,0.759v1.568l4.555-1.054V6.478
			C170.653,5.381,170.001,4.446,169.086,3.991z"/>
		<path fill="#636466" d="M169.086,14.869c0.183,0.368,0.294,0.776,0.294,1.213v9.899c0,1.505-1.279,2.785-2.785,2.785h-6.774
			c-0.438,0-0.847-0.112-1.215-0.295c0.454,0.916,1.39,1.568,2.488,1.568h6.774c1.506,0,2.785-1.279,2.785-2.785v-9.9
			C170.653,16.259,170.002,15.324,169.086,14.869z"/>
		<polygon fill="#636466" points="161.552,6.936 161.552,13.297 162.823,13.297 162.823,8.209 164.826,8.209 164.826,6.936 		"/>
	</g>
	<g>
		<polygon fill="#636466" points="182.142,17.813 181.728,17.813 181.728,28.767 178.483,28.767 178.483,30.04 183.001,30.04
			183.001,20.552 		"/>
		<polygon fill="#636466" points="191.394,3.693 189.712,3.693 185.905,15.555 190.12,28.767 186.45,28.767 186.802,29.89
			186.84,30.04 191.394,30.04 187.179,16.829 		"/>
	</g>
	<polygon fill="#636466" points="202.016,3.693 202.016,28.767 198.772,28.767 198.772,30.04 203.289,30.04 203.289,3.693 	"/>

		<rect x="220.961" y="17.076" transform="matrix(0.707 -0.7072 0.7072 0.707 52.7506 163.2791)" fill="#636466" width="4.941" height="1.8"/>

		<rect x="5.827" y="17.076" transform="matrix(0.7071 -0.7072 0.7072 0.7071 -10.2817 11.1335)" fill="#636466" width="4.941" height="1.8"/>
	<g>
		<path fill="#FFFFFF" d="M34.012,10.539c0,0.866-0.376,1.619-1.016,2.146c0.564,0.602,1.016,1.279,1.016,2.257v8.62
			c0,1.506-1.28,2.785-2.785,2.785h-9.56V0h9.56c1.505,0,2.785,1.242,2.785,2.786V10.539z M29.458,4.516h-3.275v6.361h3.275V4.516z
			 M29.458,15.395h-3.275v6.398h3.275V15.395z"/>
		<path fill="#FFFFFF" d="M51.402,0c1.505,0,2.785,1.242,2.785,2.786v20.776c0,1.506-1.28,2.785-2.785,2.785h-6.775
			c-1.543,0-2.786-1.279-2.786-2.785V2.786C41.842,1.242,43.084,0,44.627,0H51.402z M49.633,4.516h-3.275v17.277h3.275V4.516z"/>
		<path fill="#FFFFFF" d="M70.11,26.347l-1.845-10.952h-1.732v10.952h-4.516V0h9.561c1.505,0,2.748,1.242,2.748,2.786v9.861
			c0,1.054-0.603,2.032-1.581,2.484l1.882,11.216H70.11z M69.809,4.516h-3.275v6.361h3.275V4.516z"/>
		<path fill="#FFFFFF" d="M91.152,0c1.505,0,2.784,1.242,2.784,2.786v20.776c0,1.506-1.279,2.785-2.784,2.785h-6.775
			c-1.543,0-2.785-1.279-2.785-2.785V2.786C81.592,1.242,82.834,0,84.377,0H91.152z M89.383,4.516h-3.275v17.277h3.275V4.516z"/>
		<path fill="#FFFFFF" d="M111.328,0c1.505,0,2.785,1.242,2.785,2.786v20.776c0,1.506-1.279,2.785-2.785,2.785h-9.561V0H111.328z
			 M109.558,4.516h-3.275v17.277h3.275V4.516z"/>
		<path fill="#FFFFFF" d="M122.169,0h4.517v26.347h-4.517V0z"/>
		<path fill="#FFFFFF" d="M146.784,0v26.347h-4.516l-3.312-11.517v11.517h-4.517V0h4.479l3.312,10.803V0H146.784z"/>
		<path fill="#FFFFFF" d="M164.176,10.877c1.504,0,2.785,1.242,2.785,2.785v9.899c0,1.506-1.281,2.785-2.785,2.785H157.4
			c-1.544,0-2.785-1.279-2.785-2.785v-5.42l4.516-1.054v4.705h3.275v-6.398H157.4c-1.544,0-2.785-1.243-2.785-2.786V2.786
			c0-1.543,1.241-2.786,2.785-2.786h6.775c1.504,0,2.785,1.242,2.785,2.786v5.344l-4.555,1.054V4.516h-3.275v6.361H164.176z"/>
		<path fill="#FFFFFF" d="M183.485,13.136l4.216,13.21h-4.554l-0.038-0.15l-3.388-10.802h-0.415v10.952h-4.516V0h4.516v10.877h0.34
			L183.109,0h4.592L183.485,13.136z"/>
		<path fill="#FFFFFF" d="M195.08,0h4.516v26.347h-4.516V0z"/>
	</g>
</g>
</svg>