<?xml version="1.0" encoding="utf-8"?>
<!-- Generator: Adobe Illustrator 15.0.0, SVG Export Plug-In . SVG Version: 6.00 Build 0)  -->
<!DOCTYPE svg PUBLIC "-//W3C//DTD SVG 1.0//EN" "http://www.w3.org/TR/2001/REC-SVG-20010904/DTD/svg10.dtd">
<svg version="1.0" id="Layer_1" xmlns="http://www.w3.org/2000/svg" xmlns:xlink="http://www.w3.org/1999/xlink" x="0px" y="0px"
	 width="22.068px" height="21.21px" viewBox="0 0 22.068 21.21" enable-background="new 0 0 22.068 21.21" xml:space="preserve">
<path fill="#826550" d="M21.81,0c-0.034,0-0.068,0-0.103,0c-0.989,3.298-1.255,7.319-4.012,8.848
	c-0.51-1.438-1.762-2.097-3.188-2.726c-0.908-0.4-1.95-1.096-2.831-1.132c-0.213-0.008-0.45-0.014-0.643,0.135
	c-0.193-0.149-0.43-0.144-0.643-0.135c-0.88,0.036-1.922,0.731-2.83,1.132C6.133,6.751,4.882,7.41,4.372,8.848
	C1.614,7.319,1.349,3.298,0.359,0C0.325,0,0.291,0,0.257,0C0.122,0.292,0.086,0.686,0,1.029c0,0.823,0.233,9.2,0.823,12.191
	c0.531,2.695,2.605,4.643,4.629,5.916c1.41,0.887,3.646,2.074,5.582,2.074c1.934,0,4.17-1.188,5.581-2.074
	c2.025-1.273,4.099-3.221,4.63-5.916c0.591-2.991,0.823-11.368,0.823-12.191C21.982,0.686,21.947,0.292,21.81,0z M15.839,12.027
	c-0.105,0.666-0.713,1.451-1.439,1.492c-1.277,0.071-1.933-1.893-3.37-1.878c-1.438-0.015-2.093,1.949-3.369,1.878
	c-0.728-0.041-1.335-0.827-1.44-1.492c-0.132-0.833,0.262-1.975,0.72-2.417C7.414,9.151,8.15,9.21,8.946,9.095
	C9.82,8.968,10.575,8.717,11.03,8.26c0-0.016,0-0.016,0,0c0.456,0.457,1.21,0.708,2.083,0.835c0.797,0.116,1.533,0.057,2.006,0.515
	C15.578,10.052,15.971,11.194,15.839,12.027z"/>
</svg>
