<svg width="95" height="88" viewBox="0 0 94 88" xmlns="http://www.w3.org/2000/svg" fill="#826550"><path d="M87.19,22.42q-.86,2.6-1.68,5.22a43,43,0,0,1-13,54.17,12.82,12.82,0,0,1,3.14,2.67A47.07,47.07,0,0,0,87.19,22.42Z" /><path d="M9.52,70.34l1.34,0A43.06,43.06,0,0,1,66,8.38a22.28,22.28,0,0,1,2.44-3.26A47.07,47.07,0,0,0,6.23,70.48C7.36,70.37,8.48,70.34,9.52,70.34Z" /><path d="M53.45,82c.44-6.14-.87-14,.66-19.07,4.53-.08,9.56.35,13.15-.66,8.17-14.84,12-34,18.42-50.64V9C85,6,81.93,5.34,79.1,4.44h-.66c-10.6,3.43-12,16.1-14.47,27.62C48.18,27.92,31.68,32,31.09,47.19c-4.53.08-8,1.22-9.86,3.95C20.66,57.84,22.8,61.84,27.81,63q-1.86,8-7.23,12.49c-6.4.61-15.64-1.6-19.07,2v2.63c3.15,3.86,12.85,1.18,19.07,2C27.17,78.11,29,69.45,32.41,62.31c4.67.37,10.86-.78,14.47.66V82.7c-7.83.5-15.45,1.21-19.07,5.92H72.53C69.27,83.33,60.05,84,53.45,82ZM37.67,47.19C38.35,35.48,53,35.5,63.32,38.64c.1,4.72-.52,10.16,1.31,13.15C57.59,50.94,47.56,47.39,37.67,47.19Z" /></svg>