<svg viewBox="0 0 62 79" xmlns="http://www.w3.org/2000/svg" fill="#826550"><path d="M62.4,42c0-5.21-2.37-7.78-3.6-10A56,56,0,0,1,54.6,14.4C54.53,9.49,52.91,2,51.72,0c-.86,0-1.52,7.78-2.28,11.64-1.43,7-3.77,8.93-4.44,9-.76-2.81-4.11-7.36-13.68-7.72l-.12,0-.13,0c-9.56.36-12.92,4.92-13.67,7.72-.67-.07-3-2-4.44-9C12.2,7.78,11.54,0,10.68,0,9.49,2,7.87,9.49,7.8,14.4A56.06,56.06,0,0,1,3.6,32C2.37,34.23,0,36.79,0,42c0,3.74,5.2,7.2,5.64,11.4.12,1.22,0,2.35.12,3.36,2,17.48,17.87,21.73,25.44,21.73h0c7.57,0,23.44-4.24,25.44-21.73.15-1,0-2.14.12-3.36C57.2,49.2,62.4,45.75,62.4,42ZM33.24,26.76a20.63,20.63,0,0,0-4.08,0c-1.73.34-5.76,1-5.76-1.08,0-1.07,6.72-2.29,7.8-2.29S39,24.61,39,25.68C39,27.75,35,27.1,33.24,26.76Z"/></svg>