<svg viewBox="0 0 45 105" xmlns="http://www.w3.org/2000/svg" fill="#826550"><path d="M43.39,0h-.12c-2.82,21.53-5.38,22.56-7,22.68-1.43.11-3.64-1.77-4.92-2.52a15.89,15.89,0,0,0-9.06-2.54,15.9,15.9,0,0,0-9.06,2.54c-1.28.75-3.49,2.63-4.92,2.52C6.77,22.56,4.2,21.53,1.39,0H1.27C-.8,12.21-.29,50.2,2.47,63.6c2.61,18.52,10.11,35.1,13.44,39.6.68,1,3.53,1.57,6.42,1.58s5.74-.54,6.42-1.58c3.33-4.5,10.83-21.08,13.44-39.6C44.95,50.2,45.46,12.21,43.39,0ZM22.33,28.15a100.21,100.21,0,0,0-10.14.53c1.13-1.75,9-3.24,10.14-3.45,1.15.21,9,1.7,10.14,3.45A100.23,100.23,0,0,0,22.33,28.15Z"/></svg>