<svg viewBox="0 0 142 140" xmlns="http://www.w3.org/2000/svg" fill="#ffffff"><path d="M71.83,21.46V1a1,1,0,0,0-2,0V21.46l1,0Z"/><path d="M45.77,28.44c.57-.35,1.15-.67,1.73-1L37.26,9.74a1,1,0,0,0-1.73,1Z"/><path d="M10.5,34.73a1,1,0,0,0,.36,1.37L28.55,46.36c.32-.58.65-1.16,1-1.73L11.87,34.36A1,1,0,0,0,10.5,34.73Z"/><path d="M106.41,8.52a1,1,0,0,0-1.37.36l-10.8,18.6c.58.32,1.16.65,1.73,1l10.8-18.6A1,1,0,0,0,106.41,8.52Z"/><path d="M131.78,35.67a1,1,0,0,0-1-1.73L112.17,44.71c.35.57.67,1.15,1,1.73Z"/><path d="M22.5,69.77c0-.33,0-.67,0-1H1a1,1,0,0,0,0,2H22.53C22.52,70.44,22.5,70.11,22.5,69.77Z"/><path d="M140.67,68.77H119.14c0,.33,0,.67,0,1s0,.67,0,1h21.53a1,1,0,0,0,0-2Z"/><path d="M130.8,103.45,113.12,93.18c-.32.58-.65,1.16-1,1.73l17.68,10.27a1,1,0,0,0,1-1.73Z"/><path d="M9.88,103.87a1,1,0,1,0,1,1.73L29.5,94.84c-.35-.57-.67-1.15-1-1.73Z"/><path d="M95.9,111.1c-.57.35-1.15.67-1.73,1l10.24,17.7a1,1,0,0,0,1.73-1Z"/><path d="M34.89,129.65a1,1,0,1,0,1.73,1l10.8-18.6c-.58-.32-1.16-.65-1.73-1Z"/><path d="M69.83,118.08v20.46a1,1,0,0,0,2,0V118.08l-1,0Z"/><path d="M104.74,51.89a1.5,1.5,0,1,0-1.5-2.6L74.81,65.74h0a5.66,5.66,0,0,0-7.95,0L46.52,53.91A1.5,1.5,0,0,0,45,56.51L65.36,68.33a5.67,5.67,0,1,0,11,0ZM75.34,66.35l-.06-.08Zm.39.59,0,0Zm-9.78,0,0,0Zm.43-.62,0,.07Zm4.45,6.17a2.67,2.67,0,1,1,2.67-2.67A2.67,2.67,0,0,1,70.83,72.44Z"/></svg>