<svg width="45" height="13" viewBox="0 0 43 13" version="1" xmlns="http://www.w3.org/2000/svg"><path fill="#826550" d="M22.49 8.24c1.15 1.71 3.637 4.447 8.78 4.65 7.16.277 13.708-5.217 13.708-7.28-2.758 2.493-7.367 2.716-9.93 1.694-3.78-1.508-3.12-4.494-5.875-6.447-1.562-1.11-3.784-1.176-5.687 0-.34.213-.686.485-.997.81-.313-.325-.657-.598-1-.81-1.902-1.176-4.124-1.11-5.687 0C13.05 2.81 13.708 5.795 9.93 7.304 7.366 8.327 2.758 8.104 0 5.61c0 2.063 6.547 7.557 13.71 7.28 5.142-.203 7.627-2.94 8.78-4.65z"/></svg>