<svg width="21" height="16" viewBox="0 0 21 16" fill="none" xmlns="http://www.w3.org/2000/svg">
<path fill-rule="evenodd" clip-rule="evenodd" d="M14.1738 13.5219L14.1769 13.5H15.5238L15.4937 13.7105C15.3061 15.0242 14.1809 16 12.8539 16H4.14612C2.81905 16 1.69393 15.0242 1.50626 13.7105L0.690476 8L0.5 6.66667H1.84687H5.05556L4.83218 3.98618C4.65336 1.84036 6.34674 0 8.5 0C10.3138 0 11.8012 1.30578 12.1183 3H10.7473C10.457 2.04197 9.56703 1.33333 8.5 1.33333C7.12679 1.33333 6.04687 2.50699 6.16091 3.87546L6.39351 6.66667H10V8H6.55787L6.78009 10.6667H10.2199L10.2338 10.5H11.5718L11.5579 10.6667H13V12H11.4468L11.2245 14.6667H12.8539C13.5174 14.6667 14.08 14.1788 14.1738 13.5219ZM5.21991 8H5.16667H2.03735L2.4183 10.6667H5.44213L5.21991 8ZM7.11342 14.6667L6.8912 12H10.1088L9.88658 14.6667H7.11342ZM5.55324 12L5.77547 14.6667H4.14612C3.48259 14.6667 2.92003 14.1788 2.82619 13.5219L2.60877 12H5.55324ZM16.3 10V7.2H13.5V5.8H16.3V3H17.7V5.8H20.5V7.2H17.7V10H16.3Z" fill="white"/>
</svg>
