<svg width="95" height="91" viewBox="0 0 94 92" xmlns="http://www.w3.org/2000/svg" fill="#826550"><circle cx="47.08" cy="17.28" r="9.11" /><path d="M67.46,26.38H26.71a2.82,2.82,0,0,0-2.82,2.82v4.47a2.83,2.83,0,0,0,2.82,2.82h.83V81.88h-.83a2.83,2.83,0,0,0-2.82,2.82v4.47A2.83,2.83,0,0,0,26.71,92H67.46a2.83,2.83,0,0,0,2.82-2.82V84.7a2.83,2.83,0,0,0-2.82-2.82h-.83V36.49h.83a2.83,2.83,0,0,0,2.82-2.82V29.2A2.83,2.83,0,0,0,67.46,26.38ZM33.66,36.49h13.2l-13.2,13.2ZM60.5,81.88H47L60.5,68.41Zm0-28.72L33.66,80V64.93L60.5,38.09Z" /><path d="M47.08,0A47.08,47.08,0,0,0,18.89,84.79V84.7a7.77,7.77,0,0,1,1.18-4.1,43.08,43.08,0,1,1,54,0,7.77,7.77,0,0,1,1.18,4.1v.09A47.08,47.08,0,0,0,47.08,0Z" /></svg>