<svg viewBox="0 0 58 69" xmlns="http://www.w3.org/2000/svg" fill="#826550"><path d="M51.6,22.2c.12-1.7.47-3.51.72-5.4C53,11.37,53.92,5.13,52.2,0H52C50.64,3.74,50.7,8.35,49.8,12.36a19.72,19.72,0,0,1-3.24,7.56c-.53.69-1.06,1.54-1.92,1.8C44,17.8,40.36,16.78,37,15.36c-2.13-.89-4-2-6.12-2.16a10.78,10.78,0,0,0-2,.23,10.62,10.62,0,0,0-2-.23c-2.15.14-4,1.27-6.12,2.16-3.4,1.42-7,2.44-7.68,6.36-.86-.25-1.39-1.11-1.92-1.8a19.72,19.72,0,0,1-3.24-7.56C7,8.35,7,3.74,5.72,0H5.48c-1.72,5.13-.83,11.37-.12,16.8.25,1.89.6,3.7.72,5.4.79,11.05-7,23.12-6,28.92.93,7.53,8.4,9.4,14.16,12.36,4.35,2.24,8.31,5,13.32,5.16h2.56c5-.21,9-2.92,13.32-5.16,5.76-3,13.23-4.83,14.16-12.36C58.55,45.32,50.81,33.25,51.6,22.2ZM28.84,25.95h0a35.92,35.92,0,0,1-7.16-.5c.66-2.05,4-1.56,7.08-1.56h.16c3,0,6.42-.49,7.08,1.56A36,36,0,0,1,28.84,25.95Z"/></svg>