<svg viewBox="0 0 57 98" xmlns="http://www.w3.org/2000/svg" fill="#826550"><path d="M51.12,15.24C50.73,9.79,50.51,4.39,48.6,0c-.76,0-1.53,7.31-2.28,10.92-1.48,7.14-3.71,8.28-4.44,8.28C41,15.34,37.5,15,34.08,13.32a11.1,11.1,0,0,0-3.6-1.2,14.58,14.58,0,0,0-2,.12,14.4,14.4,0,0,0-2-.12,11.12,11.12,0,0,0-3.6,1.2c-3.42,1.64-6.94,2-7.8,5.88-.72,0-3-1.14-4.44-8.28C9.93,7.31,9.16,0,8.4,0,6.49,4.39,6.27,9.79,5.88,15.24,5,38.78,0,51.53,0,62.4,0,88.47,11.71,97.68,28.5,97.68S57,88.47,57,62.4C57,51.53,52,38.78,51.12,15.24ZM34.44,25c-2.79,1.17-5.35-.71-5.88-.72h-.12c-.53,0-3.09,1.89-5.88.72-.79-3.58,2.4-4,5.94-3.9C32,20.92,35.23,21.38,34.44,25Z"/></svg>